<svg width="212" height="44" viewBox="0 0 212 44" fill="none" xmlns="http://www.w3.org/2000/svg">
<g clip-path="url(#clip0_2613_1980)">
<path d="M60.3138 35.4482H65.8842C67.6383 35.4482 69.2906 35.1588 70.8443 34.58C72.3949 34.0011 73.7451 33.1421 74.8981 31.9967C76.051 30.8545 76.9604 29.4505 77.6262 27.7817C78.2921 26.116 78.625 24.1886 78.625 21.9964C78.625 20.072 78.3106 18.3078 77.6848 16.7037C77.059 15.0996 76.1805 13.7202 75.0522 12.5625C73.9239 11.4048 72.5829 10.5027 71.0231 9.8623C69.4633 9.22188 67.7585 8.89859 65.912 8.89859H60.3169V35.4451L60.3138 35.4482ZM55.0732 6.59863H65.4588C68.6556 6.59863 71.4054 6.89421 73.7081 7.49152C76.0109 8.08576 77.9314 9.04023 79.4666 10.3549C81.2207 11.8574 82.5401 13.5786 83.4279 15.5183C84.3126 17.458 84.7565 19.5794 84.7565 21.8794C84.7565 24.1793 84.3588 26.1283 83.5697 28.0526C82.7774 29.977 81.6183 31.6581 80.0924 33.0867C78.5634 34.5184 76.6768 35.6484 74.4295 36.4797C72.1791 37.3079 69.6051 37.7236 66.7073 37.7236H55.0732V6.59863Z" fill="#CD9B4B"/>
<path d="M96.0824 21.5284H99.1127C100.287 21.5284 101.372 21.3713 102.368 21.0573C103.364 20.7463 104.224 20.303 104.954 19.7303C105.682 19.1607 106.249 18.4648 106.659 17.652C107.066 16.8392 107.269 15.9247 107.269 14.9056C107.269 13.9665 107.109 13.1044 106.789 12.3224C106.468 11.5403 106.012 10.8722 105.426 10.3149C104.837 9.7607 104.141 9.32657 103.333 9.01252C102.525 8.69846 101.644 8.54144 100.691 8.54144H96.0824V21.5222V21.5284ZM90.8418 6.59863H101.653C103.518 6.59863 105.155 6.79876 106.564 7.19595C107.972 7.59621 109.15 8.15349 110.087 8.87396C111.027 9.59443 111.736 10.4504 112.214 11.4449C112.692 12.4394 112.932 13.5232 112.932 14.6962C112.932 15.6661 112.747 16.5744 112.381 17.4211C112.014 18.2647 111.496 19.0283 110.83 19.7087C110.164 20.3892 109.36 20.9742 108.419 21.4699C107.479 21.9625 106.446 22.3504 105.318 22.6306L116.672 37.7236H110.583L99.7508 23.0986H96.0824V37.7236H90.8418V6.59863Z" fill="#CD9B4B"/>
<path d="M120.935 6.59863H126.176V26.8087C126.176 28.1419 126.404 29.3889 126.857 30.5527C127.31 31.7196 127.964 32.7388 128.808 33.6163C129.656 34.4938 130.676 35.1834 131.876 35.6945C133.075 36.2026 134.41 36.4581 135.883 36.4581C137.357 36.4581 138.71 36.2026 139.9 35.6945C141.09 35.1865 142.104 34.4938 142.942 33.6163C143.778 32.7388 144.422 31.7196 144.869 30.5527C145.316 29.3858 145.538 28.1388 145.538 26.8087V6.59863H147.841V26.8087C147.841 28.4067 147.582 29.9062 147.064 31.3163C146.546 32.7234 145.735 33.9549 144.632 35.0141C143.528 36.0702 142.113 36.9076 140.39 37.5265C138.667 38.1454 136.598 38.4533 134.185 38.4533C132.036 38.4533 130.137 38.1454 128.485 37.5265C126.829 36.9076 125.445 36.0671 124.323 35.0018C123.204 33.9365 122.356 32.6895 121.786 31.2578C121.216 29.8261 120.929 28.2959 120.929 26.6702V6.59863H120.935Z" fill="#CD9B4B"/>
<path d="M159.188 22.2793C159.188 24.4561 159.518 26.4082 160.175 28.1355C160.831 29.8627 161.737 31.3283 162.89 32.526C164.04 33.7237 165.4 34.6382 166.969 35.2724C168.535 35.9067 170.236 36.2238 172.071 36.2238C173.168 36.2238 174.225 36.0114 175.243 35.5896C176.26 35.1677 177.206 34.6166 178.076 33.9362C178.945 33.2557 179.725 32.4891 180.412 31.6362C181.103 30.7833 181.667 29.9212 182.105 29.0437L184.315 30.4508C183.671 31.5007 182.912 32.5045 182.037 33.4682C181.158 34.4319 180.144 35.2847 178.994 36.0268C177.841 36.7719 176.541 37.363 175.092 37.8002C173.643 38.2374 172.024 38.456 170.24 38.456C167.653 38.456 165.307 38.025 163.202 37.166C161.093 36.307 159.29 35.14 157.785 33.6683C156.281 32.1997 155.119 30.4816 154.296 28.5173C153.473 26.5529 153.063 24.4746 153.063 22.2855C153.063 20.8292 153.251 19.4098 153.627 18.0243C154.003 16.6387 154.546 15.3425 155.261 14.1294C155.973 12.9163 156.842 11.8048 157.869 10.7949C158.895 9.78503 160.054 8.91677 161.346 8.19014C162.638 7.46351 164.053 6.90007 165.588 6.49981C167.123 6.09954 168.76 5.89941 170.498 5.89941C172.237 5.89941 173.689 6.1211 175.095 6.56754C176.497 7.01399 177.774 7.60514 178.927 8.33793C180.076 9.07379 181.106 9.92358 182.006 10.8842C182.909 11.8479 183.68 12.8516 184.321 13.9016L182.043 15.4041C180.742 12.8855 179.284 11.0412 177.672 9.87432C176.057 8.71048 174.201 8.12548 172.101 8.12548C170.301 8.12548 168.615 8.45493 167.049 9.11074C165.483 9.76963 164.117 10.7056 162.949 11.928C161.781 13.1503 160.865 14.6313 160.199 16.377C159.533 18.1228 159.2 20.0902 159.2 22.2793" fill="#CD9B4B"/>
<path d="M190.129 6.59863V37.7236H211.801V35.7069H195.373V21.7624H206.369V19.7426H195.373V8.61533H211.801V6.59863H190.129Z" fill="#CD9B4B"/>
<path d="M39.7087 11.5221C39.6131 10.4815 39.3727 9.48696 38.9873 8.54789C38.4818 7.31632 37.7296 6.22637 36.7524 5.31193C35.7721 4.39133 34.5359 3.65547 33.084 3.11973C31.6228 2.58092 29.9242 2.30689 28.0314 2.30689H27.1159C26.3113 1.63876 25.4389 1.10303 24.5017 0.712005C23.2748 0.200902 21.9708 -0.0361755 20.6299 0.00692959C19.2858 0.0500346 17.8924 0.397954 16.4836 1.04453C15.0687 1.69418 13.6753 2.70407 12.3343 4.04033L11.7024 4.67151C10.457 4.74233 9.28555 5.0102 8.21894 5.49359C6.97661 6.06011 5.85451 6.91605 4.88963 8.04294C4.05113 9.01897 3.43459 10.2629 3.05234 11.7407C2.66084 13.2494 2.46355 15.0814 2.46355 17.1905V17.2428C1.6343 18.1726 0.993101 19.1887 0.583102 20.2848C0.105284 21.5625 -0.0796774 22.9604 0.0343824 24.4413C0.133029 25.7222 0.576937 27.04 1.35069 28.3547C2.14295 29.6971 3.29896 31.1319 4.79406 32.6251L4.82797 32.6621C4.89888 33.906 5.16707 35.076 5.65105 36.1413C6.21827 37.3821 7.07526 38.5028 8.20352 39.4696C9.18074 40.304 10.4261 40.9229 11.9028 41.3047C13.4133 41.6957 15.2475 41.8927 17.3591 41.8927H17.4085C18.3394 42.721 19.3567 43.3614 20.4542 43.7709C21.7335 44.2481 23.133 44.4328 24.6158 44.322C25.8982 44.2235 27.2176 43.7801 28.5339 43.0073C29.878 42.216 31.3145 41.0614 32.8096 39.5681L32.862 39.5158C33.9039 39.4203 34.8997 39.1802 35.8368 38.7953C37.0699 38.2904 38.1612 37.5391 39.0767 36.5631C39.9954 35.584 40.7352 34.3524 41.2716 32.9022C41.8111 31.4428 42.0823 29.7463 42.0823 27.8528V26.9384C46.5029 19.4812 42.591 13.8714 39.7025 11.5283L39.7087 11.5221ZM30.997 3.50768C32.1037 3.92025 33.084 4.54528 33.907 5.36119C34.7301 6.17711 35.3867 7.19008 35.8584 8.37239C35.8738 8.41242 35.9231 8.56328 35.9231 8.56328C36.3454 9.69941 36.5674 11.0049 36.5674 12.4612C36.5674 13.8159 36.3424 15.0783 35.8985 16.2144C35.4545 17.3536 34.8195 18.3512 34.0149 19.1764C33.2103 20.0015 31.6104 20.8975 30.4452 21.19C28.3212 21.7226 26.0061 21.7719 25.109 21.7688L24.2551 20.0385C25.6516 18.6653 27.9821 17.0765 29.4032 14.5703C30.1554 13.2433 30.6209 11.9409 30.7195 10.66C30.8336 9.17907 30.6486 7.78123 30.1708 6.50348C29.693 5.22572 28.9192 4.04649 27.8711 2.99965C27.8372 2.96578 27.8033 2.93807 27.7694 2.90728C28.9007 2.93807 29.9858 3.13513 30.997 3.51076V3.50768ZM21.7026 18.9454L23.8482 23.3052H19.4924L21.6996 18.9454H21.7026ZM15.2814 2.79644C16.3573 2.30689 17.4917 2.0575 18.6508 2.05134C19.8099 2.04826 20.9905 2.30073 22.162 2.8026C23.0899 3.2121 24.5295 4.16349 25.5591 5.19185C26.5178 6.1494 27.2515 7.19932 27.7416 8.31697C28.2349 9.4377 28.4907 10.5892 28.5062 11.7407C28.5216 12.8953 28.3859 14.0807 27.8341 15.146C26.8939 16.9595 24.9888 18.5267 23.9777 19.4781L22.5689 16.6239V16.3499C22.5689 14.4594 22.2945 12.7599 21.7551 11.3005C21.2187 9.85028 20.4788 8.6187 19.5602 7.6396C18.6415 6.66358 17.5503 5.91232 16.3203 5.40738C15.1519 4.92706 13.888 4.68075 12.5625 4.65304C13.3855 3.87407 14.2949 3.24597 15.2783 2.79644H15.2814ZM3.74903 13.2556C4.20527 12.1472 4.8588 11.1773 5.68496 10.3737C6.51112 9.57009 7.50683 8.93891 8.64743 8.49247C8.64743 8.49247 8.64743 8.49247 8.65051 8.49247L8.72758 8.46784C9.8466 8.04294 11.0797 7.82742 12.4052 7.82742C13.9435 7.82742 15.3184 8.0645 16.4991 8.53557C17.6828 9.00665 18.697 9.66246 19.5139 10.4845C20.3308 11.3066 20.9566 12.2857 21.3697 13.3911C21.7273 14.3455 21.9277 15.3677 21.9739 16.433C21.9462 16.4823 21.2803 17.6153 20.3802 19.2072C18.8512 17.7785 15.2043 15.263 14.2641 14.8289C12.8584 14.1823 11.465 13.8313 10.1179 13.7913C8.77691 13.7482 7.47293 13.9884 6.24601 14.4995C5.08692 14.9829 4.02339 15.6972 3.07084 16.6055C3.10166 15.4078 3.32362 14.2809 3.74595 13.2556H3.74903ZM5.56474 28.0437C5.08692 29.2044 4.8403 30.4607 4.80948 31.7754C3.9864 30.9071 3.34211 29.9526 2.9167 28.9304C2.45738 27.8251 2.22926 26.6797 2.24467 25.5251C2.26009 24.3736 2.51595 23.2221 3.00918 22.1014C3.00918 22.1014 3.00918 22.1014 3.00918 22.0983L3.06159 21.9967C3.63497 20.8482 4.26384 19.903 5.19173 18.9762C6.27992 17.8894 7.42052 17.0858 8.58886 16.587C9.76029 16.0851 10.941 15.8326 12.1001 15.8357C13.2591 15.8388 14.3905 16.0974 15.4694 16.5808C16.6624 17.1135 18.3363 18.3851 20.0041 19.8784C19.6434 20.5219 19.2581 21.2177 18.8696 21.932C18.2531 21.8797 17.3314 21.815 16.5176 21.8027C15.1427 21.7811 12.9231 22.0767 11.4619 22.6125C10.01 23.1482 8.77691 23.8871 7.79661 24.8047C6.81939 25.7222 6.06722 26.8121 5.56165 28.0406L5.56474 28.0437ZM13.4225 40.6027C12.3128 40.147 11.3417 39.4942 10.5371 38.6691C9.73254 37.8439 8.98961 36.6924 8.6536 35.7072C8.31758 34.7219 7.98465 33.2656 7.98465 31.9539C7.98465 30.4175 8.22202 29.0443 8.69367 27.8651C9.16533 26.6828 9.82194 25.6698 10.645 24.8539C11.4681 24.038 12.4484 23.413 13.5551 23.0004C14.6525 22.5909 16.3942 22.3631 17.689 22.4185C18.0127 22.4308 18.3209 22.4493 18.583 22.4647C17.5163 24.4475 16.4621 26.5104 15.8702 27.9636C14.7512 30.707 12.7906 36.7909 16.7734 41.2769C15.5773 41.2462 14.446 41.0245 13.4194 40.6027H13.4225ZM29.1165 41.434C28.0098 41.8958 26.8631 42.1206 25.7071 42.1052C25.1676 42.099 20.3678 41.6464 17.689 35.898C15.9072 32.0709 17.2728 27.9267 19.0669 24.1765L19.1471 24.0195H24.0732C23.6787 24.8324 21.7088 29.1613 22.5689 32.4558C23.5862 36.3568 26.4932 38.1364 27.7386 38.703C28.984 39.2695 30.365 39.5558 31.8447 39.5558C31.8817 39.5558 31.9187 39.5497 31.9588 39.5497C31.0925 40.3687 30.14 41.0091 29.1196 41.434H29.1165ZM40.8863 30.8055C40.4732 31.9108 39.8474 32.8899 39.0305 33.712C38.2136 34.5341 37.1994 35.1899 36.0156 35.661C34.6931 36.1105 33.3645 36.3691 31.9218 36.3691C30.5654 36.3691 29.3015 36.1444 28.164 35.701C27.0542 35.2669 21.7489 32.4589 24.474 24.5553C26.7305 29.1152 30.3064 30.9009 33.4385 30.9995C36.5335 31.098 39.4528 30.2113 41.4905 27.5819C41.4596 28.7118 41.2623 29.7956 40.8863 30.8024V30.8055ZM38.8363 25.0571C37.3134 26.3318 34.4804 28.2931 31.0062 27.5634C29.6868 27.2863 27.6214 26.7505 25.8026 23.1697L25.3957 22.3446C27.6029 22.3076 31.3268 22.1445 32.6462 21.8027C34.1228 21.4209 35.3682 20.8051 36.3485 19.9676C37.4768 19.0009 38.3369 17.8832 38.901 16.6393C39.4682 15.3954 39.7549 14.0161 39.7549 12.5382C39.7549 12.492 39.7487 12.4458 39.7487 12.4027C44.6903 16.6732 41.4288 22.8834 38.8363 25.054V25.0571Z" fill="#CD9B4B"/>
</g>
<defs>
<clipPath id="clip0_2613_1980">
<rect width="212" height="44" fill="white"/>
</clipPath>
</defs>
</svg>
